<svg xmlns="http://www.w3.org/2000/svg" width="60" height="60" viewBox="0 0 60 60" fill="none"><path d="M30 60C46.5685 60 60 46.5685 60 30C60 13.4315 46.5685 0 30 0C13.4315 0 0 13.4315 0 30C0 46.5685 13.4315 60 30 60Z" fill="white"></path><path d="M60 30C60 17.1011 51.8587 6.10477 40.4347 1.86598V58.1341C51.8587 53.8952 60 42.8989 60 30Z" fill="#D80027"></path><path d="M0 30C0 42.8989 8.14125 53.8952 19.5653 58.134V1.86598C8.14125 6.10477 0 17.1011 0 30Z" fill="#6DA544"></path><defs><rect width="60" height="60" fill="white"></rect></defs></svg>